<?xml version="1.0" standalone="no"?>
<!DOCTYPE svg PUBLIC "-//W3C//DTD SVG 20010904//EN"
 "http://www.w3.org/TR/2001/REC-SVG-20010904/DTD/svg10.dtd">
<svg version="1.0" xmlns="http://www.w3.org/2000/svg"
 width="225.000000pt" height="225.000000pt" viewBox="0 0 225.000000 225.000000"
 preserveAspectRatio="xMidYMid meet">

<g transform="translate(0.000000,225.000000) scale(0.100000,-0.100000)"
fill="#000000" stroke="none">
<path d="M390 1549 c-113 -99 -242 -213 -287 -252 l-83 -72 0 -352 0 -353 230
0 230 0 2 183 3 182 113 3 112 3 0 -186 0 -185 230 0 230 0 0 354 0 353 -280
249 c-153 137 -283 250 -287 251 -4 1 -100 -79 -213 -178z m473 -168 l217
-194 0 -288 0 -289 -140 0 -140 0 0 180 0 180 -205 0 -205 0 0 -180 0 -180
-140 0 -140 0 0 288 0 287 171 150 c94 83 205 178 246 213 75 63 76 63 97 44
11 -10 119 -105 239 -211z"/>
<path d="M800 1667 c0 -39 4 -47 39 -75 22 -18 42 -32 45 -32 3 0 6 18 6 40
l0 40 50 0 50 0 0 -88 c0 -84 1 -90 28 -113 67 -61 62 -69 62 110 l0 161 -140
0 -140 0 0 -43z"/>
<path d="M1220 1230 l0 -300 230 0 230 0 0 -205 0 -205 45 0 45 0 0 205 0 205
230 0 230 0 -2 298 -3 297 -502 3 -503 2 0 -300z m918 -2 l2 -208 -415 0 -415
0 0 210 0 210 413 -2 412 -3 3 -207z"/>
<path d="M1410 1230 l0 -140 25 0 c24 0 25 3 25 55 0 43 3 55 15 55 18 0 35
-39 35 -81 0 -22 5 -29 20 -29 17 0 20 7 20 44 0 25 -5 57 -10 72 -8 19 -8 30
0 38 16 16 12 92 -6 110 -10 11 -34 16 -70 16 l-54 0 0 -140z m88 58 c-2 -31
-8 -44 -20 -46 -15 -3 -18 4 -18 42 0 40 3 46 21 46 18 0 20 -5 17 -42z"/>
<path d="M1590 1230 l0 -140 55 0 c42 0 55 3 55 15 0 10 -11 15 -35 15 -35 0
-35 0 -35 45 0 43 1 45 30 45 23 0 30 4 30 20 0 16 -7 20 -30 20 -28 0 -30 2
-30 40 0 39 1 40 35 40 28 0 35 4 35 20 0 18 -7 20 -55 20 l-55 0 0 -140z"/>
<path d="M1730 1231 l0 -141 25 0 26 0 -7 90 c-4 55 -3 90 3 90 5 0 20 -40 32
-90 21 -81 26 -90 47 -90 l24 0 0 140 c0 132 -1 140 -20 140 -17 0 -19 -8 -22
-77 l-3 -78 -20 75 c-19 72 -21 75 -52 78 l-33 3 0 -140z"/>
<path d="M1902 1353 c2 -10 13 -19 26 -21 21 -3 22 -7 22 -123 0 -112 1 -119
20 -119 19 0 20 7 20 120 l0 120 25 0 c18 0 25 5 25 20 0 18 -7 20 -71 20 -62
0 -70 -2 -67 -17z"/>
</g>
</svg>
