<?xml version="1.0" standalone="no"?>
<!DOCTYPE svg PUBLIC "-//W3C//DTD SVG 20010904//EN"
 "http://www.w3.org/TR/2001/REC-SVG-20010904/DTD/svg10.dtd">
<svg version="1.0" xmlns="http://www.w3.org/2000/svg"
 width="496.000000pt" height="348.000000pt" viewBox="0 0 496.000000 348.000000"
 preserveAspectRatio="xMidYMid meet">

<g transform="translate(0.000000,348.000000) scale(0.100000,-0.100000)"
fill="#000000" stroke="none">
<path d="M0 3436 c0 -25 5 -48 10 -51 6 -3 10 -13 10 -21 0 -8 -5 -12 -10 -9
-7 4 -10 -33 -9 -115 2 -117 2 -120 20 -104 18 16 19 16 19 -4 0 -15 -6 -22
-20 -22 -26 0 -26 -16 0 -23 11 -3 20 -13 20 -22 0 -12 -6 -16 -19 -12 -17 4
-19 -2 -20 -65 -1 -61 2 -73 27 -104 15 -19 27 -38 27 -43 0 -5 10 -18 23 -29
15 -13 19 -23 12 -27 -16 -10 -55 2 -75 21 -15 16 -16 6 -13 -139 3 -138 12
-197 25 -159 3 6 10 12 17 12 16 0 92 -78 84 -86 -13 -12 -67 8 -82 32 -9 13
-23 24 -31 24 -13 0 -15 -144 -15 -1111 l0 -1111 137 6 c76 3 239 8 363 12
124 3 266 9 314 13 49 5 105 6 125 4 20 -3 34 -3 31 0 -3 3 -25 8 -50 12 -25
4 -49 10 -55 14 -5 4 -107 2 -225 -5 -118 -6 -259 -14 -312 -16 l-98 -5 0 71
c0 125 30 1079 36 1132 l5 51 70 -5 c57 -4 73 -2 89 13 11 10 17 22 14 27 -7
10 -13 58 -8 58 2 0 15 -12 30 -27 16 -16 22 -29 16 -31 -7 -2 -12 -15 -12
-28 0 -23 3 -24 59 -24 32 0 73 -3 90 -6 l31 -6 0 52 c0 62 7 63 13 2 2 -23 6
-44 8 -47 3 -2 46 -7 97 -11 l92 -7 0 67 c0 78 13 114 36 95 11 -9 14 -7 14
14 0 14 5 27 11 29 5 2 14 38 18 81 4 42 12 82 19 89 13 13 13 11 14 -64 0
-39 8 -44 43 -27 19 9 18 9 -2 5 -34 -6 -38 11 -6 22 l28 10 -30 2 -30 2 30
13 c29 14 29 14 5 15 l-25 1 25 14 25 15 -29 -6 c-21 -5 -27 -4 -22 5 4 6 16
11 27 11 10 0 19 5 19 11 0 7 -7 8 -17 4 -32 -13 -315 -67 -320 -61 -12 11 49
88 80 101 18 8 25 14 17 15 -10 0 -7 8 12 26 28 28 60 37 497 139 128 30 243
55 254 55 11 0 36 -10 55 -22 31 -19 33 -22 16 -29 -23 -9 61 -1 134 13 50 9
56 8 80 -14 49 -44 54 -49 51 -52 -7 -5 -132 -36 -211 -52 l-78 -16 0 -280 c0
-153 3 -277 8 -275 4 3 7 121 6 264 0 157 3 263 9 271 10 13 61 8 82 -8 6 -4
18 -6 27 -5 10 2 20 -1 24 -6 3 -5 -1 -9 -9 -9 -11 0 -12 -6 -3 -35 11 -34 12
-35 63 -35 l53 0 0 -118 c0 -65 2 -121 4 -123 3 -3 23 -3 45 -1 35 4 41 7 41
28 0 13 5 24 10 24 6 0 10 -11 10 -25 0 -22 4 -25 34 -25 64 0 66 2 67 109 1
119 12 157 27 91 7 -33 10 -38 11 -18 1 30 19 47 31 29 4 -7 10 -74 13 -149 6
-134 17 -200 30 -194 4 1 16 2 27 2 17 0 20 -7 20 -49 l0 -50 53 -5 c56 -6
144 -11 482 -26 121 -5 256 -12 300 -14 267 -16 637 -28 643 -22 4 4 6 146 4
316 l-2 308 34 26 35 26 0 105 c0 97 -1 105 -20 105 -14 0 -19 7 -19 29 0 24
-3 28 -24 24 -21 -4 -23 -2 -19 20 5 23 12 27 82 39 67 12 76 17 79 37 3 20 8
22 45 19 33 -3 42 -8 42 -22 0 -13 -11 -23 -36 -30 -33 -10 -36 -13 -28 -35 8
-19 15 -22 39 -19 36 5 30 -3 -13 -18 -41 -14 -45 -35 -16 -97 l24 -51 5 49
c5 47 7 50 40 56 45 9 50 5 50 -39 1 -20 9 -52 18 -71 15 -31 25 -37 85 -52
63 -16 159 -70 190 -107 12 -14 15 -98 20 -547 l2 -190 40 -6 c22 -4 94 -8
160 -10 l119 -4 7 25 c7 24 7 24 8 2 1 -14 10 -26 26 -32 45 -17 26 -23 -57
-17 -46 4 -132 7 -191 8 l-108 2 0 -294 c1 -162 4 -327 7 -366 8 -83 15 -88
83 -54 54 28 208 41 389 33 l152 -7 0 1472 0 1473 -990 0 -990 0 -6 -26 c-4
-17 -2 -29 7 -35 27 -17 -8 -9 -112 26 -64 22 -118 35 -142 33 -32 -3 -9 -13
160 -75 109 -39 275 -101 368 -137 94 -36 292 -110 440 -165 390 -143 488
-180 505 -190 8 -4 17 -18 18 -31 3 -21 1 -22 -30 -17 l-33 7 23 -19 c26 -23
28 -31 6 -31 -12 0 -15 -6 -10 -20 20 -67 26 -63 -52 -35 -52 19 -81 24 -110
19 -32 -5 -60 3 -162 45 -69 27 -127 46 -130 42 -3 -4 -24 -11 -47 -15 -40 -6
-43 -5 -49 21 -3 16 -7 33 -9 39 -3 9 -549 231 -920 373 -118 45 -134 48 -175
41 -25 -5 -48 -9 -52 -10 -4 0 -10 15 -13 34 -6 31 -12 36 -68 57 -34 12 -82
32 -107 43 -42 20 -65 21 -347 24 l-302 3 -168 -218 c-232 -300 -220 -282
-203 -293 26 -17 -21 -12 -54 5 -15 8 -35 15 -42 15 -8 0 -14 4 -14 9 0 4 -22
19 -50 32 -46 22 -64 39 -41 39 6 0 10 8 10 18 1 29 7 57 15 70 6 10 11 9 22
-5 10 -13 13 -14 14 -4 0 8 10 25 22 38 12 13 16 23 9 23 -7 0 -9 5 -6 10 10
17 35 -9 35 -36 0 -12 -4 -26 -10 -29 -5 -3 -10 -16 -10 -28 0 -18 2 -19 10
-7 7 10 10 11 10 2 0 -7 -11 -17 -25 -24 -13 -6 -26 -18 -28 -27 -4 -14 -5
-13 -6 2 -1 15 -21 26 -21 11 0 -18 24 -45 36 -40 8 3 14 0 14 -7 0 -6 10 3
22 21 13 18 36 50 51 70 20 25 26 43 22 59 -4 16 -1 23 10 23 8 0 15 7 15 15
0 8 8 15 19 15 10 0 26 11 34 24 15 23 15 24 -8 29 -14 2 -25 0 -25 -4 0 -5 5
-9 10 -9 6 0 10 -4 10 -10 0 -19 -21 -10 -30 13 -9 22 -11 20 -15 -21 -3 -27
-25 -55 -25 -31 0 7 6 34 14 59 11 38 20 49 62 72 27 15 61 26 76 25 30 -2 75
44 62 64 -4 7 -3 9 3 6 6 -4 16 0 23 8 11 13 7 15 -24 15 -27 0 -35 -3 -30
-12 5 -9 2 -9 -9 1 -15 12 -17 11 -17 -3 0 -41 -56 -86 -107 -86 -11 0 -11 4
1 28 8 15 24 37 36 50 15 16 17 22 6 22 -8 0 -25 -12 -37 -27 l-22 -28 7 28
c5 20 3 27 -8 27 -9 0 -18 -14 -22 -35 -5 -31 -9 -34 -31 -29 -24 6 -24 5 -19
-30 5 -31 3 -36 -13 -36 -10 0 -22 -7 -25 -16 -8 -22 -9 -22 19 -16 37 7 35
-33 -2 -46 -42 -14 -48 -13 -49 6 -2 33 -4 37 -13 23 -14 -22 -64 7 -66 39 -2
14 0 29 2 33 3 5 7 32 8 60 4 47 2 50 -10 33 -8 -10 -16 -24 -18 -30 -2 -6 -7
-8 -11 -4 -4 3 -3 16 4 27 9 18 8 21 -9 21 -12 0 -18 -5 -15 -13 2 -7 -2 -21
-10 -32 -13 -18 -14 -17 -21 13 -7 32 -25 45 -25 17 0 -8 -5 -15 -11 -15 -14
0 -40 -26 -33 -33 3 -3 12 -3 20 0 8 3 14 -1 14 -11 0 -9 -6 -16 -12 -16 -10
0 -10 -2 0 -8 8 -5 10 -16 6 -28 -10 -26 -26 -35 -41 -22 -17 14 -29 -17 -14
-36 14 -16 -3 -32 -36 -34 -26 -1 -29 8 -11 26 9 9 9 12 0 12 -7 0 -12 -4 -12
-10 0 -16 -27 -11 -34 6 -4 9 -4 32 0 50 4 23 2 34 -6 34 -7 0 -11 14 -10 38
3 57 1 62 -20 62 -15 0 -20 -7 -21 -27 l-1 -28 -7 25 c-7 25 -8 25 -127 28
-99 2 -123 0 -134 -13 -16 -19 -34 -20 -26 0 6 18 -24 21 -41 4 -8 -8 -17 -8
-31 0 -33 17 -51 14 -45 -9 3 -11 1 -20 -3 -20 -5 0 -15 9 -22 20 -11 18 -23
20 -152 20 l-140 0 0 -44z m3952 21 c7 -8 19 -12 26 -9 15 5 16 -14 2 -23 -6
-4 -8 -15 -5 -26 4 -11 -2 -30 -13 -47 -10 -15 -17 -33 -15 -39 9 -26 -15 -12
-26 15 -7 18 -8 38 -2 59 7 25 6 35 -8 47 -10 9 -22 13 -26 9 -5 -5 -3 0 4 10
16 20 44 22 63 4z m-2062 -16 c15 -29 12 -41 -8 -41 -26 0 -30 6 -24 35 5 30
18 32 32 6z m-1660 -1 c0 -5 -4 -10 -10 -10 -5 0 -10 5 -10 10 0 6 5 10 10 10
6 0 10 -4 10 -10z m265 1 c3 -5 1 -12 -4 -15 -5 -3 -11 1 -15 9 -6 16 9 21 19
6z m175 -35 c0 -6 -7 -1 -15 10 -8 10 -15 23 -15 28 0 6 7 1 15 -10 8 -10 15
-23 15 -28z m4063 12 c-9 -15 -23 -8 -23 12 0 17 2 19 14 8 8 -7 12 -16 9 -20z
m-3709 -39 c-4 -13 -6 -40 -5 -59 2 -29 1 -32 -12 -22 -12 10 -16 10 -20 0 -4
-10 -10 -8 -22 7 -14 18 -14 21 0 31 8 6 12 14 9 17 -4 3 4 20 16 37 25 35 47
28 34 -11z m-574 5 c0 -21 -17 -17 -23 5 -3 14 -1 18 9 14 8 -3 14 -11 14 -19z
m64 16 c23 -8 24 -12 15 -40 -12 -34 -29 -40 -29 -10 0 10 -7 23 -16 28 -9 5
-14 14 -10 21 9 13 8 13 40 1z m3391 1 c3 -5 1 -12 -5 -16 -5 -3 -10 1 -10 9
0 18 6 21 15 7z m-470 -31 c3 -5 1 -10 -4 -10 -6 0 -11 5 -11 10 0 6 2 10 4
10 3 0 8 -4 11 -10z m445 0 c0 -5 -4 -10 -10 -10 -5 0 -10 5 -10 10 0 6 5 10
10 10 6 0 10 -4 10 -10z m-3400 -9 c0 -5 3 -18 7 -28 6 -16 5 -16 -10 -4 -19
15 -23 41 -7 41 6 0 10 -4 10 -9z m230 -21 c-18 -11 -24 -6 -16 16 5 14 9 15
19 5 9 -9 9 -14 -3 -21z m-291 -13 c8 -10 7 -14 -4 -14 -8 0 -15 6 -15 14 0 7
2 13 4 13 2 0 9 -6 15 -13z m3501 -23 c0 -8 -4 -12 -10 -9 -5 3 -10 13 -10 21
0 8 5 12 10 9 6 -3 10 -13 10 -21z m-3203 -13 c0 -20 -4 -28 -14 -24 -17 6
-17 40 0 46 6 3 12 6 13 6 0 1 1 -12 1 -28z m-87 -17 c0 -6 6 -17 14 -23 16
-14 7 -63 -12 -67 -7 -1 -8 0 -2 3 15 7 2 23 -19 23 -10 0 -23 11 -29 25 -8
18 -8 25 -1 25 6 0 8 7 5 16 -3 9 -4 20 -1 25 7 11 45 -12 45 -27z m349 -8
c10 -23 11 -30 1 -36 -7 -4 -10 -15 -7 -23 8 -23 -4 -29 -18 -9 -17 25 -19
105 -3 100 7 -3 19 -17 27 -32z m-462 -40 c-4 -9 -11 -16 -16 -16 -6 0 -7 7
-4 17 4 11 3 14 -5 9 -13 -8 -17 16 -5 28 11 11 36 -21 30 -38z m703 35 c0 -6
-4 -13 -10 -16 -5 -3 -10 1 -10 9 0 9 5 16 10 16 6 0 10 -4 10 -9z m-990 -33
c-1 -26 -3 -30 -10 -16 -6 9 -7 23 -4 32 9 25 14 19 14 -16z m699 1 c20 -57 8
-112 -36 -169 -11 -14 -22 -33 -26 -42 -3 -10 -11 -18 -17 -18 -12 0 -9 29 10
95 l12 39 13 -24 14 -25 -3 28 c-1 15 -6 30 -9 34 -9 8 -9 43 -1 43 4 0 13 -8
20 -17 12 -17 13 -17 14 3 0 12 -7 24 -15 28 -23 8 -18 56 6 56 4 0 12 -14 18
-31z m-91 8 c-1 -2 2 -10 8 -18 14 -19 -2 -99 -21 -99 -23 0 -25 16 -6 53 19
38 18 49 -5 40 -19 -7 -18 2 2 22 14 13 33 16 22 2z m-683 -7 c3 -5 -1 -10 -9
-10 -9 0 -16 5 -16 10 0 6 4 10 9 10 6 0 13 -4 16 -10z m123 -29 c11 -22 16
-45 12 -51 -10 -16 -30 -4 -30 19 0 9 -5 22 -11 28 -11 11 -6 43 5 43 3 0 14
-18 24 -39z m829 4 c-7 -13 -14 -20 -15 -14 -2 5 2 16 8 24 18 21 20 18 7 -10z
m-897 -23 c0 -7 -4 -10 -10 -7 -5 3 -10 16 -10 28 0 18 2 19 10 7 5 -8 10 -21
10 -28z m177 16 c-3 -8 -6 -5 -6 6 -1 11 2 17 5 13 3 -3 4 -12 1 -19z m214
-25 c49 -81 50 -83 33 -100 -13 -14 -14 -13 -10 8 4 14 -1 32 -9 43 -14 18
-16 18 -33 3 -10 -9 -21 -17 -24 -17 -10 0 -7 75 4 88 14 16 13 17 39 -25z
m3337 -8 c-3 -3 -9 2 -12 12 -6 14 -5 15 5 6 7 -7 10 -15 7 -18z m-3511 -17
c-3 -7 -5 -2 -5 12 0 14 2 19 5 13 2 -7 2 -19 0 -25z m323 -3 c0 -5 -5 -3 -10
5 -5 8 -10 20 -10 25 0 6 5 3 10 -5 5 -8 10 -19 10 -25z m247 -19 c-2 -48 -4
-52 -19 -42 -10 6 -18 16 -18 22 0 13 29 74 36 74 2 0 3 -24 1 -54z m1110 -45
c3 -45 9 -83 12 -86 4 -2 43 7 87 19 l79 23 5 59 c4 47 9 59 23 60 14 2 17 -7
17 -56 0 -32 2 -64 5 -72 7 -17 -33 -34 -220 -92 -333 -104 -371 -118 -345
-128 13 -5 26 -5 29 -1 6 9 35 19 231 79 164 51 274 84 283 84 4 0 7 -4 7 -9
0 -12 -96 -44 -112 -39 -7 3 -18 0 -24 -6 -6 -6 -92 -36 -192 -65 -100 -29
-179 -57 -177 -61 3 -5 56 7 117 26 374 113 468 135 468 104 0 -4 -10 -10 -22
-13 -47 -12 -207 -57 -298 -85 -52 -16 -121 -35 -152 -42 -32 -7 -58 -17 -58
-22 0 -4 2 -8 5 -8 12 0 177 41 216 54 150 49 343 97 370 91 16 -4 29 -10 29
-13 0 -4 -78 -29 -173 -56 -94 -27 -209 -59 -255 -72 -45 -13 -89 -24 -97 -24
-7 0 -17 -5 -21 -11 -9 -14 42 -6 136 22 36 10 74 20 85 22 11 2 27 7 36 11 8
4 29 8 45 9 16 1 31 5 34 9 3 3 56 20 119 37 62 17 116 33 119 35 2 3 19 -2
36 -11 17 -9 27 -17 21 -19 -91 -24 -438 -121 -490 -137 -38 -11 -64 -22 -57
-25 13 -4 166 34 260 64 23 8 86 25 140 39 53 13 116 30 140 36 33 9 49 9 69
0 14 -6 23 -14 20 -17 -6 -6 -292 -84 -440 -120 -92 -22 -170 -52 -107 -41 50
9 165 36 183 42 13 6 17 2 17 -18 0 -22 -6 -26 -42 -32 -49 -9 -120 -33 -97
-34 22 -1 257 54 549 129 63 17 81 18 108 8 34 -13 43 -28 16 -28 -9 0 -71
-13 -138 -30 -66 -16 -195 -48 -286 -70 -184 -45 -195 -48 -188 -56 5 -5 173
33 273 61 28 8 126 32 220 54 165 39 171 39 205 23 l35 -17 -200 -47 c-110
-26 -240 -57 -290 -69 -141 -32 -165 -39 -165 -48 0 -4 73 10 163 31 304 74
447 105 447 96 0 -5 7 -2 16 6 19 20 61 20 104 2 l33 -14 -114 -26 c-63 -15
-213 -50 -334 -77 -121 -28 -224 -55 -230 -61 -11 -11 34 -5 90 13 17 5 162
39 323 74 267 60 297 64 333 53 55 -16 41 -22 -149 -64 -317 -69 -504 -113
-511 -120 -3 -3 3 -4 14 -1 11 3 47 11 80 17 68 13 315 66 510 111 l130 30 49
-19 c47 -19 48 -19 20 -24 -16 -3 -81 -17 -144 -31 -63 -14 -196 -42 -295 -62
-99 -21 -215 -46 -259 -56 -102 -25 -110 -25 -96 1 11 20 -3 30 -15 10 -4 -6
-21 -2 -45 10 -22 11 -50 20 -64 20 -13 0 -32 3 -42 7 -16 6 -16 7 2 14 16 6
15 8 -9 8 -15 1 -26 6 -25 13 2 6 -6 14 -17 16 -11 2 -22 8 -25 12 -12 17
-121 80 -140 80 -11 0 -19 5 -18 12 3 13 -57 47 -84 48 -10 0 -18 6 -18 13 0
16 -41 37 -71 37 -11 0 -18 4 -15 9 10 15 -41 41 -79 41 -41 0 -134 48 -115
60 8 5 5 9 -7 12 -34 9 -23 40 19 56 35 14 51 32 28 32 -6 0 -3 11 6 25 9 13
18 51 21 85 5 49 8 58 19 49 11 -9 14 -8 14 0 0 7 5 9 10 6 6 -3 10 0 10 7 0
8 5 6 11 -5 12 -21 29 -13 29 14 0 11 5 17 10 14 6 -3 10 -30 10 -58 0 -29 3
-62 6 -74 5 -19 9 -20 28 -10 11 7 24 17 28 22 4 6 8 2 8 -7 0 -10 3 -18 7
-18 13 0 43 34 43 49 1 14 2 14 10 -1 6 -10 18 -14 29 -11 21 5 34 54 31 120
-3 70 -1 88 11 76 6 -6 13 -47 16 -92z m-1057 79 c0 -5 -5 -10 -11 -10 -5 0
-7 5 -4 10 3 6 8 10 11 10 2 0 4 -4 4 -10z m-938 -35 c6 -14 15 -25 19 -25 4
0 10 -8 13 -17 6 -16 6 -16 -12 0 -10 9 -26 17 -35 17 -18 0 -40 33 -30 44 14
13 34 5 45 -19z m53 5 c3 -5 1 -10 -4 -10 -6 0 -11 5 -11 10 0 6 2 10 4 10 3
0 8 -4 11 -10z m3884 -40 c20 0 12 -42 -9 -47 -28 -7 -25 -20 5 -25 19 -4 25
-1 25 13 0 10 9 23 21 29 20 11 20 11 4 -13 -8 -13 -13 -32 -9 -41 7 -18 -19
-22 -58 -7 -20 8 -23 16 -26 72 l-2 64 19 -22 c11 -13 24 -23 30 -23z m-3814
-12 c-3 -8 -12 -15 -20 -15 -18 0 -18 2 -4 29 12 23 33 11 24 -14z m220 22 c3
-5 1 -10 -4 -10 -6 0 -11 5 -11 10 0 6 2 10 4 10 3 0 8 -4 11 -10z m375 0 c0
-5 -4 -10 -10 -10 -5 0 -10 5 -10 10 0 6 5 10 10 10 6 0 10 -4 10 -10z m3110
-10 c0 -5 -4 -10 -10 -10 -5 0 -10 5 -10 10 0 6 5 10 10 10 6 0 10 -4 10 -10z
m-3835 -20 c3 -5 1 -10 -4 -10 -6 0 -11 5 -11 10 0 6 2 10 4 10 3 0 8 -4 11
-10z m185 -16 c0 -8 8 -14 17 -14 9 0 14 -3 10 -6 -12 -12 -47 8 -47 27 0 11
5 17 10 14 6 -3 10 -13 10 -21z m716 -2 c35 -19 286 -172 379 -232 99 -63 364
-220 371 -220 4 0 22 -12 41 -26 18 -14 46 -27 61 -28 15 -2 30 -4 34 -5 4 0
14 -9 23 -18 13 -12 21 -14 34 -6 9 5 25 7 36 2 11 -4 32 -8 48 -8 16 -1 27
-7 27 -15 0 -8 6 -17 13 -20 6 -3 -6 -4 -28 -1 -29 4 -36 3 -25 -4 13 -9 13
-11 -2 -11 -10 0 -18 4 -18 9 0 5 -10 13 -22 17 -22 7 -22 7 -3 15 l20 8 -20
0 c-11 0 -29 -4 -40 -9 -18 -7 -16 -9 12 -15 18 -4 30 -11 28 -16 -3 -4 1 -11
8 -16 15 -9 18 -54 3 -64 -4 -4 -2 -22 4 -42 26 -69 -11 -91 -51 -29 -20 30
-32 38 -64 42 -22 3 -66 23 -99 44 -54 34 -63 37 -107 31 l-49 -7 0 40 0 41
-140 88 c-78 48 -214 134 -303 190 -89 57 -165 103 -169 103 -4 0 2 -16 13
-35 22 -37 11 -49 -12 -15 -9 12 -28 21 -48 22 l-34 3 -248 -350 c-246 -348
-247 -350 -228 -371 28 -30 24 -37 -18 -30 -37 6 -39 6 -77 -54 -21 -33 -47
-65 -58 -71 -11 -6 -26 -26 -34 -45 -19 -45 -32 -43 -31 4 0 20 -3 46 -7 57
-5 16 32 75 169 269 96 138 174 255 173 262 -2 7 1 13 5 13 4 0 28 31 53 68
26 38 56 79 69 93 35 39 155 221 155 235 0 16 51 95 61 95 3 0 9 9 12 21 6 23
26 21 83 -9z m-874 -24 c-9 -9 -12 -7 -12 12 0 19 3 21 12 12 9 -9 9 -15 0
-24z m681 12 c3 -10 -1 -27 -9 -37 -12 -16 -13 -14 -14 20 0 39 14 50 23 17z
m-543 -11 c0 -5 -4 -9 -10 -9 -5 0 -10 7 -10 16 0 8 5 12 10 9 6 -3 10 -10 10
-16z m283 -10 c13 -9 -2 -49 -19 -49 -15 0 -18 20 -7 60 4 16 8 20 11 10 3 -8
9 -18 15 -21z m-483 -19 c0 -11 -4 -20 -10 -20 -5 0 -10 2 -10 4 0 2 -3 11 -6
20 -4 11 -1 16 10 16 9 0 16 -8 16 -20z m566 -8 c-18 -16 -18 -16 -6 6 6 13
14 21 18 18 3 -4 -2 -14 -12 -24z m1324 7 c0 -11 -4 -17 -10 -14 -5 3 -10 13
-10 21 0 8 5 14 10 14 6 0 10 -9 10 -21z m-1780 1 c0 -5 -9 -10 -20 -10 -11 0
-20 5 -20 10 0 6 9 10 20 10 11 0 20 -4 20 -10z m104 -6 c4 -10 1 -14 -6 -12
-15 5 -23 28 -10 28 5 0 13 -7 16 -16z m-137 -60 c-10 -10 -48 27 -41 38 4 6
16 1 27 -11 12 -11 18 -24 14 -27z m567 22 c-6 -16 -24 -23 -24 -8 0 10 22 33
27 28 2 -2 1 -11 -3 -20z m-37 -2 c8 -22 -15 -43 -27 -24 -5 8 -10 21 -10 28
0 17 30 15 37 -4z m-477 -14 c0 -5 -2 -10 -4 -10 -3 0 -8 5 -11 10 -3 6 -1 10
4 10 6 0 11 -4 11 -10z m45 -10 c3 -5 1 -10 -4 -10 -6 0 -11 5 -11 10 0 6 2
10 4 10 3 0 8 -4 11 -10z m495 -21 c0 -17 -4 -28 -10 -24 -5 3 -10 17 -10 31
0 13 5 24 10 24 6 0 10 -14 10 -31z m646 16 c25 -19 1 -19 -41 0 -30 13 -30
13 -4 14 14 1 34 -6 45 -14z m1416 -9 c3 -16 0 -27 -9 -30 -22 -9 -23 -8 -23
24 0 37 26 41 32 6z m-2597 -6 c3 -5 1 -10 -4 -10 -6 0 -11 5 -11 10 0 6 2 10
4 10 3 0 8 -4 11 -10z m-95 -25 c11 -10 18 -20 15 -23 -2 -3 3 -11 13 -19 16
-13 15 -14 -5 -8 -17 5 -23 2 -23 -9 0 -35 -39 1 -46 42 -1 8 -10 19 -20 26
-15 11 -13 13 14 11 18 -1 41 -10 52 -20z m65 -5 c3 -5 -1 -10 -9 -10 -8 0
-18 5 -21 10 -3 6 1 10 9 10 8 0 18 -4 21 -10z m115 -10 c0 -5 -4 -10 -10 -10
-5 0 -10 5 -10 10 0 6 5 10 10 10 6 0 10 -4 10 -10z m334 -84 c-19 -15 -18
-15 2 -10 23 6 47 -17 26 -24 -7 -2 -12 -13 -12 -25 1 -20 2 -20 11 -4 6 9 14
15 20 12 17 -11 9 -25 -18 -37 -20 -8 -24 -12 -12 -15 14 -3 12 -9 -10 -33
-31 -36 -41 -38 -41 -7 0 15 3 18 9 9 6 -10 10 -10 20 2 11 13 10 19 -4 33
-16 16 -18 16 -30 0 -25 -34 -35 -19 -34 50 1 54 7 73 28 104 l26 37 19 -39
c20 -39 20 -39 0 -53z m-44 80 c0 -3 -4 -8 -10 -11 -5 -3 -10 -1 -10 4 0 6 5
11 10 11 6 0 10 -2 10 -4z m109 -46 c0 -10 -3 -8 -9 5 -12 27 -12 43 0 25 5
-8 9 -22 9 -30z m-514 -10 c3 -5 1 -10 -4 -10 -6 0 -11 5 -11 10 0 6 2 10 4
10 3 0 8 -4 11 -10z m-20 -20 c3 -5 2 -10 -4 -10 -5 0 -13 5 -16 10 -3 6 -2
10 4 10 5 0 13 -4 16 -10z m-15 -32 c0 -6 -7 -7 -16 -4 -9 3 -18 6 -20 6 -3 0
-3 4 1 10 7 11 35 2 35 -12z m177 -20 c2 -16 0 -28 -5 -28 -16 0 -44 38 -37
50 12 20 38 6 42 -22z m2333 8 c0 -22 -9 -26 -142 -59 -79 -20 -154 -39 -166
-43 -21 -6 -23 -4 -20 17 3 22 14 27 112 52 88 23 111 26 117 15 7 -10 9 -9 9
3 0 19 51 33 61 17 4 -5 9 -3 12 6 9 23 17 20 17 -8z m113 13 c14 -1 -22 -17
-40 -18 -7 -1 -10 6 -6 15 3 8 12 13 20 10 8 -3 20 -6 26 -7z m-2710 -13 c20
-15 12 -50 -9 -42 -8 3 -14 1 -14 -5 0 -6 -4 -7 -10 -4 -15 9 -12 65 3 65 6 0
20 -7 30 -14z m3717 -11 c0 -8 -7 -15 -15 -15 -8 0 -15 7 -15 15 0 8 7 15 15
15 8 0 15 -7 15 -15z m-3583 -10 c0 -8 -4 -15 -9 -15 -10 0 -11 14 -1 23 9 10
10 9 10 -8z m188 -27 c18 -44 1 -63 -25 -28 -11 14 -20 33 -20 43 0 29 30 19
45 -15z m4365 22 c0 -5 -4 -10 -10 -10 -5 0 -10 5 -10 10 0 6 5 10 10 10 6 0
10 -4 10 -10z m-4616 -25 c3 -10 -1 -15 -14 -15 -10 0 -22 -4 -25 -10 -4 -6
12 -10 39 -10 32 0 46 -4 46 -14 0 -7 20 -21 44 -30 47 -18 74 -42 61 -54 -4
-4 -10 -1 -12 6 -3 6 -9 12 -15 12 -6 0 -5 -6 2 -15 10 -12 10 -21 2 -41 -22
-46 -33 -52 -57 -29 -12 11 -39 33 -59 49 -41 31 -76 81 -76 108 0 17 36 58
51 58 4 0 9 -7 13 -15z m106 5 c0 -5 -5 -10 -11 -10 -5 0 -7 5 -4 10 3 6 8 10
11 10 2 0 4 -4 4 -10z m27 -32 c-3 -8 -6 -5 -6 6 -1 11 2 17 5 13 3 -3 4 -12
1 -19z m253 -9 c0 -11 -4 -17 -10 -14 -5 3 -10 13 -10 21 0 8 5 14 10 14 6 0
10 -9 10 -21z m-260 -35 c0 -2 -9 0 -20 6 -11 6 -20 13 -20 16 0 2 9 0 20 -6
11 -6 20 -13 20 -16z m-203 -14 c3 -11 8 -20 12 -20 3 0 33 -25 66 -55 42 -39
55 -55 41 -55 -12 0 -16 -5 -12 -15 4 -11 -4 -8 -24 7 -27 20 -34 31 -31 50 0
4 -8 9 -18 13 -10 3 -24 18 -31 33 -7 15 -16 35 -21 45 -6 11 -5 17 2 17 6 0
13 -9 16 -20z m531 -23 c-7 -14 -13 -17 -16 -9 -6 19 6 44 18 37 7 -4 6 -14
-2 -28z m-188 -17 c0 -5 -4 -10 -10 -10 -5 0 -10 5 -10 10 0 6 5 10 10 10 6 0
10 -4 10 -10z m840 -48 c1 -15 7 -38 15 -52 20 -36 19 -40 -15 -40 -26 0 -30
4 -30 28 0 47 12 102 21 96 5 -3 9 -17 9 -32z m-890 -28 c0 -8 -6 -14 -12 -14
-10 0 -9 -3 1 -9 21 -13 5 -29 -24 -23 -20 3 -24 1 -19 -12 4 -12 2 -15 -9
-10 -19 7 -28 53 -16 76 10 19 29 24 29 8 0 -5 4 -10 9 -10 4 0 6 12 4 28 l-4
27 20 -24 c12 -13 21 -29 21 -37z m1818 4 c-2 -6 6 -14 17 -16 25 -5 56 -32
50 -43 -3 -4 3 -10 12 -12 17 -4 17 -5 0 -6 -10 0 -20 6 -23 14 -4 8 -13 15
-21 15 -8 0 -12 4 -9 9 3 5 -8 11 -24 14 -21 5 -28 11 -24 22 7 18 25 21 22 3z
m1244 -35 l60 -27 132 22 c151 26 183 22 178 -19 -1 -4 4 -6 11 -6 7 0 22 -1
35 -1 46 -4 -3 -31 -95 -53 -289 -69 -1245 -254 -1269 -245 -14 5 -11 17 31
138 l17 46 86 21 c79 19 245 53 457 95 44 9 118 25 165 35 114 25 123 25 192
-6z m-1265 -8 c0 -17 -62 -22 -72 -6 -5 8 7 12 61 20 6 0 11 -6 11 -14z
m-1902 -25 c3 -5 -1 -10 -10 -10 -9 0 -13 5 -10 10 3 6 8 10 10 10 2 0 7 -4
10 -10z m145 -20 c0 -5 -17 -10 -37 -10 -28 0 -34 3 -23 10 20 13 60 13 60 0z
m910 -15 c11 -30 43 -32 135 -10 73 18 88 19 79 3 -5 -8 -2 -9 9 -5 12 4 17 1
17 -11 0 -13 2 -14 9 -4 7 11 9 11 14 -1 4 -10 -9 -17 -46 -26 -29 -7 -61 -19
-72 -26 -18 -11 -390 -105 -475 -120 -22 -4 -40 -1 -50 7 -8 7 -13 12 -11 11
2 -2 13 8 25 22 27 32 90 58 201 85 85 21 91 24 115 61 28 46 37 48 50 14z
m465 -25 c8 -16 12 -31 7 -33 -6 -3 -14 -3 -49 1 -16 2 -17 26 -2 53 12 23 24
18 44 -21z m590 10 c19 -8 19 -9 -2 -9 -12 -1 -25 4 -28 9 -7 12 2 12 30 0z
m5 -80 c0 -5 -4 -10 -10 -10 -5 0 -10 5 -10 10 0 6 5 10 10 10 6 0 10 -4 10
-10z m-906 -6 c31 -12 15 -23 -60 -40 -49 -12 -70 -20 -58 -24 10 -4 30 -1 44
7 14 7 35 13 48 13 13 0 31 4 40 9 12 6 29 4 52 -6 l35 -16 -55 -12 c-30 -7
-100 -23 -155 -34 -55 -12 -179 -42 -275 -65 -256 -64 -236 -60 -220 -41 21
25 58 40 144 60 44 11 75 20 69 22 -6 2 -46 -5 -89 -16 l-77 -20 20 20 c14 15
93 39 269 84 137 35 250 63 251 64 1 1 8 -2 17 -5z m381 -44 c3 -5 -1 -10 -9
-10 -8 0 -18 5 -21 10 -3 6 1 10 9 10 8 0 18 -4 21 -10z m-1283 -198 c30 -33
66 -66 79 -75 23 -17 23 -17 -29 -17 l-52 0 0 35 c0 33 -2 35 -40 41 -35 6
-40 10 -40 34 0 26 7 40 20 40 4 0 32 -26 62 -58z m2763 -147 c0 -11 -8 -21
-17 -23 -14 -3 -18 3 -18 23 0 20 4 26 18 23 9 -2 17 -12 17 -23z m-2837 -147
c-4 -27 -28 -36 -28 -10 0 20 8 32 22 32 5 0 8 -10 6 -22z m2 -68 c0 -27 -17
-34 -29 -12 -7 13 -7 22 1 30 15 15 28 6 28 -18z m230 -130 c0 -11 -4 -20 -10
-20 -5 0 -10 9 -10 20 0 11 5 20 10 20 6 0 10 -9 10 -20z m-566 -615 c17 -13
17 -15 3 -21 -25 -9 -48 3 -41 21 7 18 14 18 38 0z m66 -16 c0 -6 -4 -7 -10
-4 -5 3 -10 11 -10 16 0 6 5 7 10 4 6 -3 10 -11 10 -16z"/>
<path d="M153 2592 c15 -15 27 -33 27 -40 0 -17 17 -15 23 2 3 8 -2 16 -14 19
-11 3 -23 15 -26 26 -3 12 -12 21 -21 21 -12 0 -9 -7 11 -28z"/>
<path d="M3408 2433 c7 -3 16 -2 19 1 4 3 -2 6 -13 5 -11 0 -14 -3 -6 -6z"/>
<path d="M3358 2423 c7 -3 16 -2 19 1 4 3 -2 6 -13 5 -11 0 -14 -3 -6 -6z"/>
<path d="M1260 2220 c0 -5 4 -10 9 -10 6 0 13 5 16 10 3 6 -1 10 -9 10 -9 0
-16 -4 -16 -10z"/>
<path d="M1216 2211 c-4 -5 3 -7 14 -4 23 6 26 13 6 13 -8 0 -17 -4 -20 -9z"/>
<path d="M1100 2181 c0 -5 9 -7 20 -4 11 3 20 7 20 9 0 2 -9 4 -20 4 -11 0
-20 -4 -20 -9z"/>
<path d="M900 3470 c0 -5 5 -10 11 -10 5 0 7 5 4 10 -3 6 -8 10 -11 10 -2 0
-4 -4 -4 -10z"/>
<path d="M1085 3320 c3 -5 8 -10 11 -10 2 0 4 5 4 10 0 6 -5 10 -11 10 -5 0
-7 -4 -4 -10z"/>
<path d="M15 2830 c4 -6 11 -8 16 -5 14 9 11 15 -7 15 -8 0 -12 -5 -9 -10z"/>
<path d="M1530 2020 c-22 -7 -21 -8 12 -9 20 -1 40 4 43 9 7 12 -19 12 -55 0z"/>
<path d="M1548 1993 c6 -2 18 -2 25 0 6 3 1 5 -13 5 -14 0 -19 -2 -12 -5z"/>
<path d="M1281 1937 c-90 -17 -158 -33 -152 -35 16 -5 304 49 316 59 5 5 7 9
5 8 -3 -1 -79 -15 -169 -32z"/>
<path d="M1526 1962 c-3 -5 8 -6 25 -4 16 2 29 6 29 8 0 8 -49 4 -54 -4z"/>
<path d="M1388 1928 c-31 -8 -38 -15 -38 -35 0 -13 -4 -21 -10 -18 -5 3 -10
14 -10 24 0 16 -5 17 -50 8 -49 -9 -50 -11 -50 -44 l0 -35 46 7 c26 3 53 9 60
12 11 4 14 -17 14 -111 l0 -116 28 0 c15 0 37 3 50 6 22 6 22 9 22 160 0 117
-3 154 -12 153 -7 -1 -30 -6 -50 -11z m2 -78 c0 -5 -5 -10 -11 -10 -5 0 -7 5
-4 10 3 6 8 10 11 10 2 0 4 -4 4 -10z"/>
<path d="M1530 1930 c-13 -9 -13 -10 0 -9 8 0 24 4 35 9 l20 9 -20 0 c-11 0
-27 -4 -35 -9z"/>
<path d="M1540 1900 l-25 -8 27 -1 c15 -1 30 4 33 9 7 11 0 11 -35 0z"/>
<path d="M1150 1881 c-25 -7 -25 -7 -28 -149 l-3 -143 48 3 48 3 2 148 c1 145
1 147 -20 146 -12 -1 -33 -4 -47 -8z"/>
<path d="M1748 1883 c-2 -5 -2 -56 0 -115 l3 -108 45 0 44 0 0 115 0 115 -44
0 c-25 0 -46 -3 -48 -7z"/>
<path d="M1540 1870 c-24 -8 -23 -8 8 -9 17 -1 32 4 32 9 0 11 -5 11 -40 0z"/>
<path d="M1548 1843 c-16 -2 -28 -8 -28 -12 0 -4 14 -6 30 -3 17 2 30 8 30 13
0 5 -1 8 -2 8 -2 -1 -15 -4 -30 -6z"/>
<path d="M1257 1823 l-27 -4 5 -106 c3 -59 7 -108 9 -111 9 -8 85 10 88 21 2
7 2 56 0 110 -4 107 1 101 -75 90z"/>
<path d="M1530 1800 c-11 -8 -7 -9 15 -4 37 8 45 14 19 14 -10 0 -26 -5 -34
-10z"/>
<path d="M970 1755 c0 -23 3 -25 28 -19 38 9 40 14 7 14 -31 0 -25 15 10 23
13 3 9 5 -12 6 -29 1 -33 -2 -33 -24z"/>
<path d="M1535 1770 c-13 -5 -14 -9 -5 -9 8 0 24 4 35 9 13 5 14 9 5 9 -8 0
-24 -4 -35 -9z"/>
<path d="M1535 1740 c-18 -8 -17 -9 7 -9 15 -1 30 4 33 9 7 12 -12 12 -40 0z"/>
<path d="M970 1710 c0 -6 11 -8 28 -4 39 10 40 14 4 14 -18 0 -32 -5 -32 -10z"/>
<path d="M1533 1703 c9 -2 25 -2 35 0 9 3 1 5 -18 5 -19 0 -27 -2 -17 -5z"/>
<path d="M970 1652 c0 -38 1 -38 33 -33 l32 5 -30 6 c-29 7 -27 9 15 23 8 3 2
6 -14 6 -32 1 -26 15 9 24 13 3 9 5 -12 6 -32 1 -33 -1 -33 -37z"/>
<path d="M1543 1673 c9 -2 23 -2 30 0 6 3 -1 5 -18 5 -16 0 -22 -2 -12 -5z"/>
<path d="M1525 1640 c-4 -6 6 -7 27 -3 44 8 48 13 10 13 -17 0 -34 -4 -37 -10z"/>
<path d="M1910 1635 c-80 -5 -151 -14 -157 -18 -15 -10 -18 -31 -3 -22 6 4 10
-20 10 -63 l0 -70 123 -6 c67 -4 138 -8 157 -9 l35 -2 3 85 c4 121 9 118 -168
105z"/>
<path d="M1535 1610 l-20 -9 20 0 c11 0 27 4 35 9 13 9 13 10 0 9 -8 0 -24 -4
-35 -9z"/>
<path d="M970 1592 c0 -5 14 -7 30 -4 17 2 30 6 30 8 0 2 -13 4 -30 4 -16 0
-30 -4 -30 -8z"/>
<path d="M1276 1576 c-94 -13 -151 -26 -154 -33 -2 -7 1 -13 7 -13 6 0 11 -6
11 -14 0 -14 21 -17 223 -32 l87 -6 0 61 c0 43 -4 61 -12 60 -7 -1 -80 -11
-162 -23z"/>
<path d="M1540 1580 c-24 -8 -23 -8 8 -9 17 -1 32 4 32 9 0 11 -5 11 -40 0z"/>
<path d="M998 1573 c-21 -3 -28 -10 -28 -27 0 -20 4 -22 33 -17 31 5 31 6 5 9
-35 4 -37 22 -3 22 14 0 25 5 25 10 0 6 -1 9 -2 9 -2 -1 -15 -4 -30 -6z"/>
<path d="M1533 1543 c9 -2 25 -2 35 0 9 3 1 5 -18 5 -19 0 -27 -2 -17 -5z"/>
<path d="M1548 1513 c6 -2 18 -2 25 0 6 3 1 5 -13 5 -14 0 -19 -2 -12 -5z"/>
<path d="M2178 1513 c6 -2 18 -2 25 0 6 3 1 5 -13 5 -14 0 -19 -2 -12 -5z"/>
<path d="M1553 1483 c9 -2 23 -2 30 0 6 3 -1 5 -18 5 -16 0 -22 -2 -12 -5z"/>
<path d="M2170 1481 c0 -5 9 -7 20 -4 11 3 20 7 20 9 0 2 -9 4 -20 4 -11 0
-20 -4 -20 -9z"/>
<path d="M2183 1443 c9 -2 23 -2 30 0 6 3 -1 5 -18 5 -16 0 -22 -2 -12 -5z"/>
<path d="M970 1426 c0 -8 4 -17 9 -20 10 -7 23 19 14 28 -11 11 -23 6 -23 -8z"/>
<path d="M3360 1301 c0 -25 6 -27 13 -6 4 8 2 17 -3 20 -6 4 -10 -3 -10 -14z"/>
<path d="M666 1156 c-3 -56 -8 -192 -11 -303 l-5 -203 54 0 53 0 6 83 c4 45 7
106 7 135 l0 52 109 0 109 0 6 31 c14 70 17 68 -106 71 l-113 3 0 60 0 60 128
-4 127 -3 0 50 0 50 -92 6 c-51 3 -132 7 -180 9 l-86 3 -6 -100z"/>
<path d="M1188 1220 c-85 -45 -132 -148 -131 -285 2 -179 85 -279 233 -279
101 0 161 38 211 134 21 40 24 58 24 165 0 98 -3 126 -19 155 -26 49 -64 88
-108 111 -51 26 -159 25 -210 -1z m180 -100 c46 -28 66 -79 65 -170 0 -127
-48 -190 -146 -190 -56 0 -90 25 -113 85 -21 55 -16 174 10 223 35 67 119 91
184 52z"/>
<path d="M1587 1019 c-4 -112 -7 -237 -7 -277 l0 -73 48 3 47 3 3 108 3 107
62 0 c93 0 101 -9 105 -119 l4 -91 55 0 c49 0 54 2 47 18 -4 9 -11 55 -14 102
-8 94 -14 116 -37 125 -14 5 -11 11 12 35 36 37 46 124 22 182 -24 58 -60 71
-213 76 l-131 4 -6 -203z m255 84 c24 -22 24 -77 -2 -103 -16 -16 -33 -20 -90
-20 l-70 0 0 70 0 70 72 0 c52 0 76 -4 90 -17z"/>
<path d="M2230 945 l0 -255 45 0 45 0 0 100 0 100 59 0 c80 0 91 -12 91 -100
0 -94 3 -100 57 -100 l44 0 -5 33 c-3 17 -8 62 -11 99 -4 43 -13 76 -25 91
-19 24 -19 25 0 42 43 39 48 150 8 200 -26 34 -76 45 -200 45 l-108 0 0 -255z
m234 149 c19 -19 21 -87 4 -102 -7 -6 -43 -12 -81 -14 l-67 -3 0 68 0 67 64 0
c45 0 69 -5 80 -16z"/>
<path d="M2630 1067 c0 -68 -3 -179 -7 -246 l-6 -122 148 3 148 3 4 43 4 42
-105 0 -106 0 0 65 0 65 90 0 90 0 0 40 0 40 -90 0 -90 0 0 50 0 50 100 0 100
0 0 39 c0 38 0 38 -46 45 -26 3 -89 6 -140 6 l-94 0 0 -123z"/>
<path d="M2968 1016 c-5 -334 -6 -311 22 -314 46 -4 49 5 51 149 0 75 4 141 8
148 5 7 36 -50 76 -139 l68 -150 37 0 37 0 7 226 c4 125 5 229 2 231 -2 3 -20
6 -38 6 l-33 2 -5 -158 -5 -159 -71 159 -70 158 -42 3 -42 3 -2 -165z"/>
<path d="M3320 1130 l0 -40 50 0 50 0 0 -191 c0 -170 2 -190 16 -185 9 3 24 6
35 6 18 0 19 9 19 185 l0 185 55 0 55 0 0 40 0 40 -140 0 -140 0 0 -40z"/>
<path d="M2338 618 c-3 -7 -20 -13 -39 -13 -25 0 -35 -5 -37 -19 -2 -10 3 -23
11 -28 16 -8 12 -48 -5 -48 -5 0 -4 -8 1 -19 6 -10 8 -21 5 -23 -2 -3 6 -5 18
-4 20 1 23 7 26 49 2 26 7 47 13 47 5 0 9 5 9 10 0 6 -7 6 -19 -1 -20 -13 -51
-6 -51 11 0 5 15 10 33 10 21 0 41 8 52 20 16 17 16 20 2 20 -8 0 -17 -5 -19
-12z"/>
<path d="M3340 580 c0 -5 5 -10 10 -10 6 0 10 5 10 10 0 6 -4 10 -10 10 -5 0
-10 -4 -10 -10z"/>
<path d="M3605 491 l-80 -6 75 -6 c41 -3 83 -3 93 -1 19 5 24 23 5 20 -7 -1
-49 -4 -93 -7z"/>
<path d="M3300 461 c58 -4 134 -4 170 0 41 4 3 6 -105 6 -150 0 -158 -1 -65
-6z"/>
<path d="M970 450 c-9 -6 -10 -10 -3 -10 6 0 15 5 18 10 8 12 4 12 -15 0z"/>
<path d="M2850 450 c-52 -4 -126 -9 -165 -10 -38 -2 -87 -9 -108 -16 -21 -8
-61 -12 -90 -9 -72 6 -167 -5 -167 -19 0 -31 106 -34 515 -12 61 3 220 11 355
17 135 6 247 13 250 15 5 6 -20 24 -33 24 -5 0 -5 -4 -2 -10 3 -5 -1 -10 -9
-10 -9 0 -16 4 -16 10 0 5 -31 8 -77 5 -43 -2 -121 0 -173 6 -169 17 -184 17
-280 9z m228 -27 c-16 -2 -40 -2 -55 0 -16 2 -3 4 27 4 30 0 43 -2 28 -4z
m-128 -12 c0 -5 -9 -7 -20 -4 -11 3 -20 7 -20 9 0 2 9 4 20 4 11 0 20 -4 20
-9z"/>
<path d="M3525 440 c-3 -5 1 -10 9 -10 9 0 16 5 16 10 0 6 -4 10 -9 10 -6 0
-13 -4 -16 -10z"/>
<path d="M3560 440 c0 -5 9 -10 21 -10 11 0 17 5 14 10 -3 6 -13 10 -21 10 -8
0 -14 -4 -14 -10z"/>
<path d="M3458 423 c6 -2 18 -2 25 0 6 3 1 5 -13 5 -14 0 -19 -2 -12 -5z"/>
<path d="M3761 407 l-113 -9 25 -24 c15 -13 29 -24 33 -24 3 0 42 -25 86 -55
44 -30 83 -53 87 -51 10 7 14 176 4 174 -4 0 -59 -5 -122 -11z"/>
<path d="M4850 410 c-9 -6 -10 -10 -3 -10 6 0 15 5 18 10 8 12 4 12 -15 0z"/>
<path d="M2113 393 c-19 -3 -33 -10 -33 -18 0 -8 -13 -15 -32 -17 -18 -2 17
-4 77 -3 106 0 110 1 113 23 3 20 0 22 -45 20 -26 0 -63 -3 -80 -5z"/>
<path d="M1853 383 c9 -2 23 -2 30 0 6 3 -1 5 -18 5 -16 0 -22 -2 -12 -5z"/>
<path d="M1639 376 c-2 -2 -71 -7 -154 -11 -82 -4 -153 -9 -157 -11 -5 -3 -8
-12 -8 -21 0 -13 16 -14 118 -9 165 9 231 17 238 27 3 5 14 9 24 9 10 0 22 5
25 10 6 9 -76 15 -86 6z"/>
<path d="M1756 372 c-2 -4 11 -6 30 -4 19 2 34 6 34 8 0 8 -59 4 -64 -4z"/>
<path d="M4640 361 c0 -6 11 -16 24 -22 20 -10 29 -8 52 10 15 11 22 21 17 21
-6 0 -16 -7 -23 -15 -16 -19 -29 -19 -52 2 -11 10 -18 12 -18 4z"/>
<path d="M1111 346 c7 -7 129 -10 136 -3 3 4 -27 7 -67 7 -40 0 -71 -2 -69 -4z"/>
<path d="M1873 343 c26 -2 67 -2 90 0 23 2 2 3 -48 3 -49 0 -68 -1 -42 -3z"/>
<path d="M923 333 c15 -2 39 -2 55 0 15 2 2 4 -28 4 -30 0 -43 -2 -27 -4z"/>
<path d="M2978 323 c7 -3 16 -2 19 1 4 3 -2 6 -13 5 -11 0 -14 -3 -6 -6z"/>
<path d="M1123 313 c20 -2 54 -2 75 0 20 2 3 4 -38 4 -41 0 -58 -2 -37 -4z"/>
<path d="M3570 290 c-9 -6 -10 -10 -3 -10 6 0 15 5 18 10 8 12 4 12 -15 0z"/>
<path d="M2446 282 c-3 -5 8 -6 25 -4 16 2 29 6 29 8 0 8 -49 4 -54 -4z"/>
<path d="M2608 283 c6 -2 18 -2 25 0 6 3 1 5 -13 5 -14 0 -19 -2 -12 -5z"/>
<path d="M2246 264 c-6 -15 -4 -15 11 -3 10 7 20 15 22 16 2 2 -3 3 -11 3 -9
0 -19 -7 -22 -16z"/>
<path d="M2868 273 c7 -3 16 -2 19 1 4 3 -2 6 -13 5 -11 0 -14 -3 -6 -6z"/>
<path d="M2330 250 c-18 -12 -2 -12 25 0 13 6 15 9 5 9 -8 0 -22 -4 -30 -9z"/>
<path d="M2859 223 c-13 -16 -12 -17 4 -4 9 7 17 15 17 17 0 8 -8 3 -21 -13z"/>
<path d="M4270 225 c-7 -8 -23 -15 -36 -15 -31 0 -30 -4 7 -43 17 -17 38 -45
46 -61 12 -22 17 -26 24 -15 5 8 4 18 -1 23 -6 6 -10 20 -10 33 0 13 -4 23 -9
23 -14 0 -20 37 -8 49 6 6 8 13 5 16 -3 3 -11 -1 -18 -10z"/>
<path d="M3028 223 c7 -3 16 -2 19 1 4 3 -2 6 -13 5 -11 0 -14 -3 -6 -6z"/>
<path d="M4021 207 c-13 -21 -12 -21 5 -5 10 10 16 20 13 22 -3 3 -11 -5 -18
-17z"/>
<path d="M1302 208 c-13 -13 -4 -38 14 -38 15 0 19 35 6 44 -5 3 -14 0 -20 -6z"/>
<path d="M2310 200 c-9 -6 -10 -10 -3 -10 6 0 15 5 18 10 8 12 4 12 -15 0z"/>
<path d="M2815 180 c-3 -5 -1 -10 4 -10 6 0 11 5 11 10 0 6 -2 10 -4 10 -3 0
-8 -4 -11 -10z"/>
<path d="M4888 183 c7 -3 16 -2 19 1 4 3 -2 6 -13 5 -11 0 -14 -3 -6 -6z"/>
<path d="M1240 170 c0 -6 7 -10 15 -10 8 0 15 2 15 4 0 2 -7 6 -15 10 -8 3
-15 1 -15 -4z"/>
<path d="M3449 163 c-13 -16 -12 -17 4 -4 16 13 21 21 13 21 -2 0 -10 -8 -17
-17z"/>
<path d="M388 163 c7 -3 16 -2 19 1 4 3 -2 6 -13 5 -11 0 -14 -3 -6 -6z"/>
<path d="M265 150 c-3 -6 1 -7 9 -4 18 7 21 14 7 14 -6 0 -13 -4 -16 -10z"/>
<path d="M1658 153 c7 -3 16 -2 19 1 4 3 -2 6 -13 5 -11 0 -14 -3 -6 -6z"/>
<path d="M4896 151 c-4 -5 3 -7 14 -4 23 6 26 13 6 13 -8 0 -17 -4 -20 -9z"/>
<path d="M2480 140 c-9 -6 -10 -10 -3 -10 6 0 15 5 18 10 8 12 4 12 -15 0z"/>
<path d="M4101 124 c0 -11 3 -14 6 -6 3 7 2 16 -1 19 -3 4 -6 -2 -5 -13z"/>
<path d="M4806 131 c-4 -5 3 -7 14 -4 23 6 26 13 6 13 -8 0 -17 -4 -20 -9z"/>
<path d="M4765 106 c-82 -18 -181 -38 -220 -45 -164 -29 -205 -39 -205 -52 0
-5 125 -9 310 -9 l310 0 0 70 c0 84 15 82 -195 36z"/>
<path d="M55 120 c-3 -5 3 -10 14 -10 11 0 23 5 26 10 3 6 -3 10 -14 10 -11 0
-23 -4 -26 -10z"/>
<path d="M121 123 c-1 -18 13 -23 29 -11 12 8 12 9 -2 5 -9 -3 -19 -1 -22 6
-3 9 -5 9 -5 0z"/>
<path d="M385 120 c-3 -6 1 -7 9 -4 18 7 21 14 7 14 -6 0 -13 -4 -16 -10z"/>
<path d="M556 121 c-4 -5 3 -7 14 -4 23 6 26 13 6 13 -8 0 -17 -4 -20 -9z"/>
<path d="M4230 120 c-12 -7 -12 -10 3 -16 21 -8 29 -3 19 13 -5 8 -13 9 -22 3z"/>
<path d="M4680 120 c-9 -6 -10 -10 -3 -10 6 0 15 5 18 10 8 12 4 12 -15 0z"/>
<path d="M240 110 c-13 -8 -13 -10 2 -10 9 0 20 5 23 10 8 13 -5 13 -25 0z"/>
<path d="M318 113 c7 -3 16 -2 19 1 4 3 -2 6 -13 5 -11 0 -14 -3 -6 -6z"/>
<path d="M406 105 c-16 -12 -17 -15 -4 -15 9 0 18 7 22 15 7 18 6 18 -18 0z"/>
<path d="M975 109 c-4 -6 -5 -13 -2 -16 7 -7 27 6 27 18 0 12 -17 12 -25 -2z"/>
<path d="M2538 113 c7 -3 16 -2 19 1 4 3 -2 6 -13 5 -11 0 -14 -3 -6 -6z"/>
<path d="M20 100 c0 -5 5 -10 11 -10 5 0 7 5 4 10 -3 6 -8 10 -11 10 -2 0 -4
-4 -4 -10z"/>
<path d="M737 93 c-4 -3 -7 -11 -7 -17 0 -6 5 -5 12 2 6 6 9 14 7 17 -3 3 -9
2 -12 -2z"/>
<path d="M58 83 c7 -3 16 -2 19 1 4 3 -2 6 -13 5 -11 0 -14 -3 -6 -6z"/>
<path d="M150 80 c-9 -6 -10 -10 -3 -10 6 0 15 5 18 10 8 12 4 12 -15 0z"/>
<path d="M4215 70 c3 -5 8 -10 11 -10 2 0 4 5 4 10 0 6 -5 10 -11 10 -5 0 -7
-4 -4 -10z"/>
<path d="M2248 63 c6 -2 18 -2 25 0 6 3 1 5 -13 5 -14 0 -19 -2 -12 -5z"/>
<path d="M2538 53 c7 -3 16 -2 19 1 4 3 -2 6 -13 5 -11 0 -14 -3 -6 -6z"/>
<path d="M470 40 c0 -5 7 -7 15 -4 8 4 15 8 15 10 0 2 -7 4 -15 4 -8 0 -15 -4
-15 -10z"/>
<path d="M1795 40 c-19 -8 -19 -9 3 -9 12 -1 22 4 22 9 0 6 -1 10 -2 9 -2 0
-12 -4 -23 -9z"/>
<path d="M229 23 c-13 -16 -12 -17 4 -4 9 7 17 15 17 17 0 8 -8 3 -21 -13z"/>
<path d="M405 30 c-8 -13 5 -13 25 0 13 8 13 10 -2 10 -9 0 -20 -4 -23 -10z"/>
<path d="M680 30 c0 -5 7 -7 15 -4 8 4 15 8 15 10 0 2 -7 4 -15 4 -8 0 -15 -4
-15 -10z"/>
<path d="M1905 30 c-3 -5 -1 -10 4 -10 6 0 11 5 11 10 0 6 -2 10 -4 10 -3 0
-8 -4 -11 -10z"/>
<path d="M50 18 c-14 -6 -20 -12 -13 -15 6 -2 24 3 40 11 32 17 11 20 -27 4z"/>
<path d="M1036 22 c-3 -5 8 -6 25 -4 16 2 29 6 29 8 0 8 -49 4 -54 -4z"/>
</g>
</svg>
