<svg id="Layer_1" data-name="Layer 1" xmlns="http://www.w3.org/2000/svg"
     xmlns:xlink="http://www.w3.org/1999/xlink" viewBox="0 0 182.09 79.83">
    <defs>
        <style>.cls-1{fill:none;}.cls-2{clip-path:url(#clip-path);}.cls-3{fill:#f1ec61;}.cls-4{fill:#286bb5;}.cls-5{clip-path:url(#clip-path-2);}.cls-6{fill:#ec273b;}.cls-7{fill:#ef4e2a;}</style><clipPath id="clip-path" transform="translate(-16.18 -35.93)"><rect class="cls-1" width="210.47" height="148.82"/></clipPath><clipPath id="clip-path-2" transform="translate(-16.18 -35.93)"><path class="cls-1" d="M16.18,74.5A38.56,38.56,0,1,0,54.74,35.94,38.56,38.56,0,0,0,16.18,74.5"/></clipPath></defs><g class="cls-2"><path class="cls-3" d="M93.3,74.5A38.56,38.56,0,1,1,54.74,35.93,38.56,38.56,0,0,1,93.3,74.5" transform="translate(-16.18 -35.93)"/><path class="cls-4" d="M54.74,35.94a38.56,38.56,0,0,0-25.43,67.54L47,77.28H63.19l17.4,25.83A38.56,38.56,0,0,0,54.74,35.94" transform="translate(-16.18 -35.93)"/></g><g class="cls-5"><path class="cls-6" d="M36,108.69,49.55,78.37h3.66a1.9,1.9,0,0,1,1.89,1.9v35.5L36,110.51Z" transform="translate(-16.18 -35.93)"/></g><g class="cls-2"><path class="cls-3" d="M60,66.07H50.19A3.16,3.16,0,0,0,47,69.23v7H63.19v-7A3.16,3.16,0,0,0,60,66.07" transform="translate(-16.18 -35.93)"/><polygon class="cls-6" points="41.8 33.36 39.65 33.36 39.65 31.28 38.04 31.28 38.04 33.36 35.76 33.36 35.76 34.99 38.04 34.99 38.04 39.16 39.65 39.16 39.65 34.99 41.8 34.99 41.8 33.36"/><path class="cls-4" d="M111,70.65a6.87,6.87,0,0,1-2.7,3.19,7.54,7.54,0,0,1-4.16,1.2,7.28,7.28,0,0,1-5.35-2.23,7.68,7.68,0,0,1,0-10.78,7.27,7.27,0,0,1,5.35-2.22A7.54,7.54,0,0,1,108.36,61a6.94,6.94,0,0,1,2.73,3.26H108a4.83,4.83,0,0,0-1.76-1.42,4.9,4.9,0,0,0-2.18-.53,4.44,4.44,0,0,0-3.34,1.48,4.93,4.93,0,0,0-1.4,3.51A5.15,5.15,0,0,0,100.76,71a4.65,4.65,0,0,0,3.51,1.51,4.42,4.42,0,0,0,2-.51,4.83,4.83,0,0,0,1.65-1.35Z" transform="translate(-16.18 -35.93)"/><path class="cls-4" d="M117.72,75.11a5.51,5.51,0,0,1-4.06-1.7,6,6,0,0,1,0-8.3,5.67,5.67,0,0,1,8.12,0,5.73,5.73,0,0,1,1.68,4.15,6.34,6.34,0,0,1-.1,1.16H114.8a3.33,3.33,0,0,0,.74,1.3,2.91,2.91,0,0,0,2.24,1,3.06,3.06,0,0,0,1.53-.39,2.43,2.43,0,0,0,1-1h2.78a5.11,5.11,0,0,1-2,2.79,5.68,5.68,0,0,1-3.39,1m3-6.79a3.3,3.3,0,0,0-.78-1.52,2.93,2.93,0,0,0-4.41,0,3.69,3.69,0,0,0-.79,1.52Z" transform="translate(-16.18 -35.93)"/><path class="cls-4" d="M125.12,63.76h2.46v.95a4.09,4.09,0,0,1,3-1.31,3.87,3.87,0,0,1,3.1,1.31,5.23,5.23,0,0,1,1.15,3.57v6.47h-2.64V68.87a3.93,3.93,0,0,0-.56-2.29,1.88,1.88,0,0,0-1.64-.79,2,2,0,0,0-1.71.8,4,4,0,0,0-.57,2.37v5.79h-2.64Z" transform="translate(-16.18 -35.93)"/><path class="cls-4" d="M149.34,75.11a5.51,5.51,0,0,1-4.06-1.7,6,6,0,0,1,0-8.3,5.67,5.67,0,0,1,8.12,0,5.73,5.73,0,0,1,1.68,4.15,7.36,7.36,0,0,1-.09,1.16h-8.57a3.6,3.6,0,0,0,.74,1.3,2.91,2.91,0,0,0,2.25,1,3,3,0,0,0,1.52-.39,2.43,2.43,0,0,0,1-1h2.78a5.11,5.11,0,0,1-2,2.79,5.68,5.68,0,0,1-3.39,1m3-6.79a3.23,3.23,0,0,0-.79-1.52,2.93,2.93,0,0,0-4.41,0,3.69,3.69,0,0,0-.79,1.52Z" transform="translate(-16.18 -35.93)"/><path class="cls-4" d="M156.74,63.76h2.46v.95a4.09,4.09,0,0,1,3.06-1.31,3.87,3.87,0,0,1,3.09,1.31,5.23,5.23,0,0,1,1.15,3.57v6.47h-2.64V68.87a3.93,3.93,0,0,0-.56-2.29,1.87,1.87,0,0,0-1.63-.79,2,2,0,0,0-1.72.8,4,4,0,0,0-.57,2.37v5.79h-2.64Z" transform="translate(-16.18 -35.93)"/><path class="cls-4" d="M173.54,75.11a5.11,5.11,0,0,1-3.86-1.7,6.21,6.21,0,0,1,0-8.3,5.09,5.09,0,0,1,3.87-1.71A5,5,0,0,1,177.27,65V63.76h2.43v11h-2.43v-1.2a5.07,5.07,0,0,1-3.73,1.56m.43-9.33a3,3,0,0,0-2.31,1,3.52,3.52,0,0,0-.93,2.48,3.48,3.48,0,0,0,.93,2.47,3.17,3.17,0,0,0,4.62,0,3.76,3.76,0,0,0,0-5,3,3,0,0,0-2.31-1" transform="translate(-16.18 -35.93)"/><path class="cls-4" d="M181.87,63.76h2.46v.83l.12-.17a2.62,2.62,0,0,1,2.28-1h.17v2.51a2.82,2.82,0,0,0-1.7.58,2.38,2.38,0,0,0-.69,1.89v6.37h-2.64Z" transform="translate(-16.18 -35.93)"/><polygon class="cls-4" points="175.71 42.51 174.32 42.51 172.92 42.51 174.96 37.83 174.96 37.84 170.94 27.83 172.43 27.83 173.92 27.83 176.41 35 176.43 35 179.11 27.83 180.6 27.83 182.09 27.83 175.71 42.51"/><polygon class="cls-7" points="128.56 27.33 124.92 27.33 124.92 23.08 121.68 23.08 121.68 27.33 118.44 27.33 119.65 29.56 121.68 29.56 121.68 38.56 124.92 38.56 124.92 29.56 126.94 29.56 128.56 27.33"/><path class="cls-4" d="M97.32,84.18H101a5.87,5.87,0,0,1,3.64,1A3.29,3.29,0,0,1,106,88a3.15,3.15,0,0,1-1.36,2.66l-.28.19a4.71,4.71,0,0,1,1,.56,3.53,3.53,0,0,1,1.52,3,4,4,0,0,1-1.47,3.23,6,6,0,0,1-3.92,1.21H97.32Zm2.7,5.7h1a3,3,0,0,0,1.71-.4,1.35,1.35,0,0,0,.57-1.19,1.37,1.37,0,0,0-.57-1.19,3,3,0,0,0-1.71-.4h-1Zm0,6.42h1.44a3.37,3.37,0,0,0,2-.49,1.88,1.88,0,0,0,0-2.92,3.92,3.92,0,0,0-2.16-.49H100Z" transform="translate(-16.18 -35.93)"/><path class="cls-4" d="M113.4,99.19a5.08,5.08,0,0,1-3.85-1.71,6.17,6.17,0,0,1,0-8.29,5.06,5.06,0,0,1,3.86-1.72,5,5,0,0,1,3.73,1.58V87.84h2.42v11h-2.42v-1.2a5.12,5.12,0,0,1-3.74,1.57m.44-9.33a3,3,0,0,0-2.31,1,3.76,3.76,0,0,0,0,5,3,3,0,0,0,2.3,1,3.08,3.08,0,0,0,2.32-1,3.76,3.76,0,0,0,0-5,3,3,0,0,0-2.31-1" transform="translate(-16.18 -35.93)"/><path class="cls-4" d="M121.57,87.84H124v1a4.1,4.1,0,0,1,3.06-1.32,3.87,3.87,0,0,1,3.09,1.32,5.23,5.23,0,0,1,1.15,3.57v6.46h-2.64V93a4,4,0,0,0-.56-2.3,1.88,1.88,0,0,0-1.63-.78,2,2,0,0,0-1.71.79A4,4,0,0,0,124.2,93v5.78h-2.63Z" transform="translate(-16.18 -35.93)"/><polygon class="cls-4" points="120.42 62.89 119.11 62.89 117.78 62.89 117.78 48.24 119.1 48.24 120.42 48.24 120.42 57.15 120.43 57.15 123.96 51.91 125.49 51.91 127.03 51.91 122.94 57.21 127.51 62.89 125.93 62.89 124.34 62.89 120.42 57.65 120.42 57.65 120.42 62.89"/></g></svg>